<svg width="40" height="40" viewBox="0 0 40 40" fill="none" xmlns="http://www.w3.org/2000/svg">
<path d="M37.6562 23.7172V20C37.6562 10.3035 29.7087 2.42188 20 2.42188C10.3027 2.42188 2.34375 10.2912 2.34375 20V23.7172C0.979766 24.2009 0 25.5035 0 27.0312V31.7188C0 33.6573 1.57711 35.2344 3.51562 35.2344H4.88906C5.37281 36.5983 6.67539 37.5781 8.20312 37.5781H10.5469C12.4854 37.5781 14.0625 36.001 14.0625 34.0625V24.6875C14.0625 22.749 12.4854 21.1719 10.5469 21.1719H8.20312C6.67539 21.1719 5.37281 22.1517 4.88906 23.5156H4.6875V20C4.6875 19.417 4.7218 18.8417 4.78617 18.2755C5.3393 18.6331 5.98891 18.8281 6.67922 18.8281C8.15648 18.8281 9.47977 17.895 9.9718 16.5063C11.4666 12.2876 15.4966 9.45312 20 9.45312C24.5034 9.45312 28.5334 12.2876 30.0281 16.5062C30.5202 17.895 31.8434 18.8281 33.3207 18.8281C34.011 18.8281 34.6607 18.6331 35.2138 18.2755C35.2783 18.8417 35.3125 19.4169 35.3125 20V23.5156H35.1109C34.6272 22.1517 33.3246 21.1719 31.7969 21.1719H29.4531C27.5146 21.1719 25.9375 22.749 25.9375 24.6875V34.0625C25.9375 36.001 27.5146 37.5781 29.4531 37.5781H31.7969C33.3246 37.5781 34.6272 36.5983 35.1109 35.2344H36.4844C38.4229 35.2344 40 33.6573 40 31.7188V27.0312C40 25.5035 39.0202 24.2009 37.6562 23.7172ZM7.03125 24.6875C7.03125 24.0413 7.55695 23.5156 8.20312 23.5156H10.5469C11.193 23.5156 11.7188 24.0413 11.7188 24.6875V34.0625C11.7188 34.7087 11.193 35.2344 10.5469 35.2344H8.20312C7.55695 35.2344 7.03125 34.7087 7.03125 34.0625V24.6875ZM4.6875 32.8906H3.51562C2.86945 32.8906 2.34375 32.3649 2.34375 31.7188V27.0312C2.34375 26.3851 2.86945 25.8594 3.51562 25.8594H4.6875V32.8906ZM33.3207 16.4844C32.834 16.4844 32.3986 16.1786 32.2373 15.7234C30.4366 10.6412 25.5412 7.10938 20 7.10938C14.4648 7.10938 9.56516 10.6363 7.76258 15.7235C7.60133 16.1786 7.16602 16.4844 6.67922 16.4844C5.85156 16.4844 5.31016 15.6548 5.5918 14.8656C7.68992 8.98719 13.3732 4.76562 20 4.76562C26.6369 4.76562 32.3123 8.99625 34.4081 14.8656C34.69 15.6555 34.1475 16.4844 33.3207 16.4844ZM32.9688 34.0625C32.9688 34.7087 32.443 35.2344 31.7969 35.2344H29.4531C28.807 35.2344 28.2812 34.7087 28.2812 34.0625V24.6875C28.2812 24.0413 28.807 23.5156 29.4531 23.5156H31.7969C32.443 23.5156 32.9688 24.0413 32.9688 24.6875V34.0625ZM37.6562 31.7188C37.6562 32.3649 37.1305 32.8906 36.4844 32.8906H35.3125V25.8594H36.4844C37.1305 25.8594 37.6562 26.3851 37.6562 27.0312V31.7188Z" fill="white"/>
</svg>
