<svg width="30" height="30" viewBox="0 0 30 30" fill="none" xmlns="http://www.w3.org/2000/svg">
<g clip-path="url(#clip0_11_61)">
<path d="M26.0075 11.5382L8.2887 0.616041C7.00679 -0.17316 5.45692 -0.205972 4.14272 0.528268C2.82852 1.26239 2.04395 2.59956 2.04395 4.1049V25.8498C2.04395 28.1259 3.87793 29.9876 6.13204 29.9999C6.13819 29.9999 6.14434 30 6.15038 30C6.8548 29.9999 7.58886 29.7791 8.27447 29.3608C8.82601 29.0243 9.00033 28.3044 8.66382 27.7529C8.32732 27.2013 7.60732 27.0271 7.05595 27.3636C6.73526 27.5591 6.42208 27.6603 6.14464 27.6603C5.29415 27.6556 4.38354 26.9271 4.38354 25.8498V4.10495C4.38354 3.45919 4.7201 2.88573 5.28378 2.57079C5.84751 2.25585 6.51226 2.26991 7.06146 2.60806L24.7803 13.5302C25.3129 13.8581 25.6176 14.4049 25.6163 15.0303C25.615 15.6557 25.3081 16.2012 24.7726 16.528L11.9618 24.3718C11.4108 24.7092 11.2376 25.4294 11.5749 25.9803C11.9123 26.5313 12.6324 26.7046 13.1835 26.3672L25.9927 18.5243C27.2192 17.7761 27.9531 16.4718 27.956 15.035C27.959 13.5984 27.2303 12.291 26.0075 11.5382Z" fill="white"/>
</g>
<defs>
<clipPath id="clip0_11_61">
<rect width="30" height="30" fill="white"/>
</clipPath>
</defs>
</svg>
