<svg width="15" height="15" viewBox="0 0 15 15" fill="none" xmlns="http://www.w3.org/2000/svg">
<circle cx="7.5" cy="7.5" r="7.5" fill="url(#paint0_linear_1550_2017)"/>
<path d="M8.87997 5.90767H10.5632C10.549 4.54759 9.46591 3.62784 7.77557 3.62784C6.11364 3.62784 4.9169 4.53338 4.92756 5.88636C4.92401 6.99077 5.69815 7.61222 6.95526 7.89986L7.7152 8.07741C8.5142 8.26207 8.87287 8.47869 8.87997 8.88707C8.87287 9.33097 8.45739 9.63991 7.75071 9.63991C6.97301 9.63991 6.46165 9.2777 6.42259 8.57812H4.73935C4.76065 10.2791 5.94318 11.0923 7.77202 11.0923C9.5831 11.0923 10.6555 10.272 10.6626 8.89062C10.6555 7.7294 9.87074 7.01918 8.43608 6.70312L7.81108 6.56108C7.15057 6.41903 6.73153 6.19886 6.74574 5.76562C6.74929 5.3679 7.0902 5.08026 7.77202 5.08026C8.45739 5.08026 8.83381 5.3892 8.87997 5.90767Z" fill="white"/>
<defs>
<linearGradient id="paint0_linear_1550_2017" x1="-4.42559e-08" y1="3.27577" x2="15.0113" y2="12.1169" gradientUnits="userSpaceOnUse">
<stop stop-color="#5BEFA5"/>
<stop offset="1" stop-color="#0E9D48"/>
</linearGradient>
</defs>
</svg>
